<svg width="12" height="11" viewBox="0 0 12 11" fill="none" xmlns="http://www.w3.org/2000/svg">
<path d="M5.5 2.88C5.5 4.1754 4.40015 5.26 3 5.26C1.59985 5.26 0.5 4.1754 0.5 2.88C0.5 1.5846 1.59985 0.5 3 0.5C4.40015 0.5 5.5 1.5846 5.5 2.88Z" transform="translate(3)" stroke="#CCCCCC"/>
<mask id="path-2-inside-1" fill="white">
<path fill-rule="evenodd" clip-rule="evenodd" d="M6 1.66714C7.24983 1.66714 8.38058 1.17804 9.19595 0.388347C9.63866 -0.0404253 10.359 -0.176677 10.746 0.302951C11.5321 1.27706 12 2.49965 12 3.82717C12 4.0599 11.9857 4.28942 11.9577 4.51494C11.9022 4.96395 11.4965 5.26711 11.0441 5.26711H0.955932C0.503495 5.26711 0.0978456 4.96395 0.0422562 4.51494C0.0143358 4.28942 0 4.0599 0 3.82717C0 2.49965 0.467915 1.27706 1.25398 0.302951C1.64101 -0.176676 2.36134 -0.0404252 2.80405 0.388347C3.61942 1.17804 4.75017 1.66714 6 1.66714Z"/>
</mask>
<path d="M11.9577 4.51494L10.9653 4.39207L11.9577 4.51494ZM9.19595 0.388347L8.50024 -0.32998L9.19595 0.388347ZM8.50024 -0.32998C7.86809 0.282266 6.98557 0.667138 6 0.667138V2.66714C7.51409 2.66714 8.89307 2.07381 9.89166 1.10667L8.50024 -0.32998ZM13 3.82717C13 2.25925 12.4462 0.817444 11.5242 -0.325038L9.9678 0.93094C10.618 1.73668 11 2.74005 11 3.82717H13ZM12.9502 4.6378C12.9831 4.37156 13 4.10101 13 3.82717H11C11 4.01879 10.9882 4.20727 10.9653 4.39207L12.9502 4.6378ZM0.955932 6.26711H11.0441V4.26711H0.955932V6.26711ZM-1 3.82717C-1 4.10101 -0.983129 4.37156 -0.950167 4.6378L1.03468 4.39207C1.0118 4.20727 1 4.01879 1 3.82717H-1ZM0.475755 -0.325038C-0.446175 0.817444 -1 2.25926 -1 3.82717H1C1 2.74005 1.38201 1.73668 2.0322 0.93094L0.475755 -0.325038ZM6 0.667138C5.01443 0.667138 4.13191 0.282266 3.49976 -0.32998L2.10834 1.10667C3.10693 2.07381 4.48591 2.66714 6 2.66714V0.667138ZM2.0322 0.93094C2.0148 0.952502 1.98338 0.976937 1.94607 0.990827C1.91357 1.00293 1.89862 0.999062 1.91097 1.00027C1.92406 1.00155 1.95399 1.00754 1.99476 1.02722C2.03501 1.04665 2.07482 1.07421 2.10834 1.10667L3.49976 -0.32998C3.13297 -0.685214 2.6367 -0.938391 2.1053 -0.990269C1.55046 -1.04444 0.918074 -0.873172 0.475755 -0.325038L2.0322 0.93094ZM0.955932 4.26711C0.950308 4.26711 0.95756 4.26461 0.974929 4.2785C0.98468 4.2863 0.998255 4.30006 1.01066 4.32152C1.02359 4.34389 1.0318 4.36884 1.03468 4.39207L-0.950167 4.6378C-0.822121 5.67206 0.0885272 6.26711 0.955932 6.26711V4.26711ZM10.9653 4.39207C10.9682 4.36884 10.9764 4.34389 10.9893 4.32152C11.0017 4.30006 11.0153 4.2863 11.0251 4.2785C11.0424 4.26461 11.0497 4.26711 11.0441 4.26711V6.26711C11.9115 6.26711 12.8221 5.67206 12.9502 4.6378L10.9653 4.39207ZM9.89166 1.10667C9.92518 1.07421 9.96499 1.04665 10.0052 1.02722C10.046 1.00754 10.0759 1.00155 10.089 1.00027C10.1014 0.999062 10.0864 1.00293 10.0539 0.990827C10.0166 0.976937 9.9852 0.952502 9.9678 0.93094L11.5242 -0.325038C11.0819 -0.873173 10.4495 -1.04444 9.8947 -0.990269C9.3633 -0.938391 8.86703 -0.685214 8.50024 -0.32998L9.89166 1.10667Z" transform="translate(0 5.53284)" fill="#CCCCCC" mask="url(#path-2-inside-1)"/>
</svg>
