<svg width="11" height="11" viewBox="0 0 11 11" fill="none" xmlns="http://www.w3.org/2000/svg">
<path fill-rule="evenodd" clip-rule="evenodd" d="M6.53652 4.00011C6.11269 4.0001 5.74816 4.27755 5.51719 4.63292C4.98231 5.45587 4.05484 6.00012 3.00002 6.00005C1.34335 6.00014 0.00025895 4.65705 0 3.00002C0.000172633 1.34326 1.34326 0.000172633 3.00002 0C4.05481 0.000139392 4.9824 0.544354 5.51736 1.36737C5.74833 1.7227 6.11284 2.00013 6.53664 2.00013H11.0001C11.5524 2.00013 12.0001 2.44786 12.0001 3.00015L12 3.50003C12 3.77617 11.7761 4.00002 11.5 4.00005C11.2239 4.00007 11 4.22392 11 4.50004C11 4.77616 10.7762 5 10.5001 5.00003L9.50009 5.00011C9.22395 5.00014 9.00009 4.77628 9.00012 4.50014C9.00014 4.22402 8.77632 4.00017 8.5002 4.00016L6.53652 4.00011ZM2.00013 4.00026C2.55256 4.00026 3.0002 3.55262 3.0002 3.0002C3.00046 2.4482 2.55265 2.00039 2.0003 2.0003C1.44788 2.0003 1.00024 2.44794 1.00024 3.00037C1.00032 3.55271 1.44814 4.00052 2.00013 4.00026Z" transform="translate(-1.00049 7.48535) rotate(-45)" fill="#C4C4C4"/>
</svg>
